<svg id="Logo" xmlns="http://www.w3.org/2000/svg" width="104" height="47" viewBox="0 0 104 47">
  <metadata><?xpacket begin="﻿" id="W5M0MpCehiHzreSzNTczkc9d"?>
<x:xmpmeta xmlns:x="adobe:ns:meta/" x:xmptk="Adobe XMP Core 5.6-c142 79.160924, 2017/07/13-01:06:39        ">
   <rdf:RDF xmlns:rdf="http://www.w3.org/1999/02/22-rdf-syntax-ns#">
      <rdf:Description rdf:about=""/>
   </rdf:RDF>
</x:xmpmeta>
                                                                                                    
                                                                                                    
                                                                                                    
                                                                                                    
                                                                                                    
                                                                                                    
                                                                                                    
                                                                                                    
                                                                                                    
                                                                                                    
                                                                                                    
                                                                                                    
                                                                                                    
                                                                                                    
                                                                                                    
                                                                                                    
                                                                                                    
                                                                                                    
                                                                                                    
                                                                                                    
                           
<?xpacket end="w"?></metadata>
<defs>
    <style>
      .cls-1 {
        fill: #2c2f49;
      }

      .cls-1, .cls-2, .cls-3 {
        fill-rule: evenodd;
      }

      .cls-2 {
        fill: #ff8a8a;
      }

      .cls-3 {
        fill: #fff;
      }
    </style>
  </defs>
  <path id="Start" class="cls-1" d="M12.39,12.718a6.938,6.938,0,0,0-2.383-1.54,8.239,8.239,0,0,0-3.017-.532,6.889,6.889,0,0,0-2.611.462A5.7,5.7,0,0,0,2.471,12.34,5.306,5.306,0,0,0,1.293,14.1a5.388,5.388,0,0,0-.406,2.058,5.435,5.435,0,0,0,.406,2.233,4.5,4.5,0,0,0,1.068,1.5,5.63,5.63,0,0,0,1.509.98,17.3,17.3,0,0,0,1.736.665L7.341,22.1a7.409,7.409,0,0,1,1.509.665,3.391,3.391,0,0,1,1.068.973,2.545,2.545,0,0,1,.406,1.491,3.916,3.916,0,0,1-.276,1.5,3.247,3.247,0,0,1-.792,1.155A3.585,3.585,0,0,1,8,28.636,5.014,5.014,0,0,1,6.3,28.9a5.251,5.251,0,0,1-1.936-.315,7.056,7.056,0,0,1-1.35-.693,11.03,11.03,0,0,1-.93-0.693,1.088,1.088,0,0,0-.661-0.315,0.622,0.622,0,0,0-.351.105A1.02,1.02,0,0,0,.8,27.25L0.033,28.538a8.187,8.187,0,0,0,2.693,1.911,8.442,8.442,0,0,0,3.492.707,7.544,7.544,0,0,0,2.8-.49,6.014,6.014,0,0,0,2.08-1.344,5.707,5.707,0,0,0,1.288-2.009,6.872,6.872,0,0,0,.441-2.471,4.869,4.869,0,0,0-.406-2.1A4.432,4.432,0,0,0,11.35,21.3a6.1,6.1,0,0,0-1.515-.973Q8.987,19.942,8.1,19.634t-1.736-.6a8.151,8.151,0,0,1-1.515-.679,3.512,3.512,0,0,1-1.075-.945,2.289,2.289,0,0,1-.406-1.393A3.175,3.175,0,0,1,3.6,14.8a2.727,2.727,0,0,1,.7-0.987,3.354,3.354,0,0,1,1.15-.665A4.719,4.719,0,0,1,7.031,12.9a4.85,4.85,0,0,1,1.619.238,6.344,6.344,0,0,1,1.143.525,8.686,8.686,0,0,1,.785.525,0.945,0.945,0,0,0,.544.238,0.575,0.575,0,0,0,.358-0.105,1.084,1.084,0,0,0,.262-0.315Zm8.982,18.1a4.556,4.556,0,0,0,1.529-.945l-0.716-1.19a0.422,0.422,0,0,0-.344-0.238,0.456,0.456,0,0,0-.255.105q-0.145.105-.351,0.231a2.847,2.847,0,0,1-.489.231,1.918,1.918,0,0,1-.668.105,1.478,1.478,0,0,1-1.1-.434,1.828,1.828,0,0,1-.427-1.33V18.836h4V17.03h-4V12.144h-1.24a0.564,0.564,0,0,0-.386.133,0.532,0.532,0,0,0-.179.343L16.179,17l-2.287.294V18.29a0.521,0.521,0,0,0,.152.413,0.543,0.543,0,0,0,.372.133H16.1v8.68a3.781,3.781,0,0,0,.889,2.7,3.334,3.334,0,0,0,2.542.938A5.121,5.121,0,0,0,21.373,30.813Zm13.9-8.953a7.163,7.163,0,0,0-.317-2.184,4.647,4.647,0,0,0-.937-1.694A4.269,4.269,0,0,0,32.49,16.89a5.213,5.213,0,0,0-2.08-.392,7.593,7.593,0,0,0-2.962.56,7.962,7.962,0,0,0-2.494,1.694l0.441,0.8a1,1,0,0,0,.3.329,0.726,0.726,0,0,0,.434.133,1.1,1.1,0,0,0,.641-0.231q0.324-.231.771-0.518a5.677,5.677,0,0,1,1.061-.518,4.3,4.3,0,0,1,1.509-.231,2.5,2.5,0,0,1,2.06.852,3.9,3.9,0,0,1,.7,2.515v1.113a17.777,17.777,0,0,0-4.009.386,9.447,9.447,0,0,0-2.652.991,4.028,4.028,0,0,0-1.467,1.384,3.177,3.177,0,0,0-.455,1.622,4.17,4.17,0,0,0,.31,1.679,3.309,3.309,0,0,0,.834,1.173,3.45,3.45,0,0,0,1.233.7,4.882,4.882,0,0,0,1.522.232,6.974,6.974,0,0,0,1.453-.14,5.644,5.644,0,0,0,1.233-.413,6.135,6.135,0,0,0,1.1-.672q0.523-.4,1.075-0.9l0.276,1.316a0.62,0.62,0,0,0,.289.476,1.279,1.279,0,0,0,.579.112h1.088V21.86Zm-7.26,7.426a1.886,1.886,0,0,1-.716-0.38,1.836,1.836,0,0,1-.482-0.669,2.4,2.4,0,0,1-.179-0.972,1.814,1.814,0,0,1,.338-1.07,2.694,2.694,0,0,1,1.081-.831,7.959,7.959,0,0,1,1.929-.57,16.2,16.2,0,0,1,2.879-.218V27.5a7.9,7.9,0,0,1-.847.8,5.346,5.346,0,0,1-.909.595,4.623,4.623,0,0,1-1.013.378,4.924,4.924,0,0,1-1.185.133A3.207,3.207,0,0,1,28.013,29.286Zm12.881,1.646V21.9a5.68,5.68,0,0,1,1.44-2.2,3.13,3.13,0,0,1,2.142-.756,3.684,3.684,0,0,1,1.116.133,2.108,2.108,0,0,0,.592.133,0.416,0.416,0,0,0,.427-0.35L46.928,17a3.632,3.632,0,0,0-.868-0.371,4.115,4.115,0,0,0-3.52.7,6.473,6.473,0,0,0-1.77,2.317L40.6,17.436A0.955,0.955,0,0,0,40.4,16.9a0.768,0.768,0,0,0-.551-0.154H38.441V30.932h2.452Zm14.176-.119a4.556,4.556,0,0,0,1.529-.945l-0.716-1.19a0.422,0.422,0,0,0-.344-0.238,0.456,0.456,0,0,0-.255.105q-0.145.105-.351,0.231a2.85,2.85,0,0,1-.489.231,1.919,1.919,0,0,1-.668.105,1.478,1.478,0,0,1-1.1-.434,1.828,1.828,0,0,1-.427-1.33V18.836h4V17.03h-4V12.144h-1.24a0.564,0.564,0,0,0-.386.133,0.532,0.532,0,0,0-.179.343L49.876,17l-2.287.294V18.29a0.521,0.521,0,0,0,.151.413,0.543,0.543,0,0,0,.372.133h1.681v8.68a3.781,3.781,0,0,0,.889,2.7,3.334,3.334,0,0,0,2.542.938A5.121,5.121,0,0,0,55.07,30.813Z"/>
  <path id="Polygon_1" data-name="Polygon 1" class="cls-2" d="M73.336,2.687Q85.16,9.717,97.064,16.609t0,13.783q-11.9,6.891-23.728,13.922T61.59,37.422q0.079-13.921,0-27.844T73.336,2.687Z"/>
  <path id="Ex" class="cls-3" d="M65.939,10.857V30.919H78.1V28.707H68.626V21.861H76.3V19.733H68.626V13.069H78.1V10.857H65.939ZM79.385,30.919h2.191a0.581,0.581,0,0,0,.434-0.161,2.813,2.813,0,0,0,.3-0.357l3.251-4.83a2.56,2.56,0,0,0,.289-0.728L89.36,30.4a1.47,1.47,0,0,0,.282.357,0.668,0.668,0,0,0,.475.161h2.356l-4.891-7.406,4.7-6.776H90.021a0.509,0.509,0,0,0-.344.119,1.722,1.722,0,0,0-.275.315l-3,4.48a3.709,3.709,0,0,0-.358.784l-3.417-5.32a0.929,0.929,0,0,0-.248-0.28,0.775,0.775,0,0,0-.441-0.1H79.578l4.7,6.916Z"/>
</svg>
